<?xml version="1.0" standalone="no"?>
<!DOCTYPE svg PUBLIC "-//W3C//DTD SVG 20010904//EN"
 "http://www.w3.org/TR/2001/REC-SVG-20010904/DTD/svg10.dtd">
<svg version="1.0" xmlns="http://www.w3.org/2000/svg"
 width="1280.000000pt" height="928.000000pt" viewBox="0 0 1280.000000 928.000000"
 preserveAspectRatio="xMidYMid meet">

<g transform="translate(0.000000,928.000000) scale(0.100000,-0.100000)"
fill="#000000" stroke="none">
<path d="M5355 6026 c-328 -49 -563 -229 -733 -561 -88 -171 -124 -380 -104
-607 38 -444 193 -826 480 -1188 153 -192 472 -489 682 -636 274 -190 660
-404 730 -404 39 0 305 135 493 250 277 170 585 421 781 635 326 357 502 694
588 1125 19 97 22 147 23 325 0 188 -2 219 -23 293 -102 376 -363 651 -708
748 -36 10 -114 18 -199 21 -127 5 -151 3 -250 -21 -189 -46 -339 -136 -486
-294 -72 -77 -147 -189 -186 -279 -15 -35 -30 -63 -33 -63 -3 0 -23 36 -45 80
-62 130 -112 199 -213 298 -145 142 -266 214 -435 257 -120 30 -248 38 -362
21z m366 -1116 c85 -15 209 -83 273 -148 72 -74 87 -95 123 -167 27 -53 31
-57 38 -36 16 51 78 142 135 199 215 213 540 215 749 5 145 -146 199 -325 172
-562 -39 -335 -224 -640 -547 -902 -172 -140 -458 -309 -522 -309 -31 0 -198
88 -329 172 -376 245 -622 551 -707 879 -59 228 -43 437 47 598 42 76 159 191
228 225 101 49 230 66 340 46z"/>
<path d="M9628 2248 c-16 -13 -42 -136 -72 -343 -40 -270 -45 -558 -11 -656
20 -58 43 -69 144 -69 125 0 361 70 361 107 0 18 -2 17 -115 -22 -119 -41
-159 -44 -176 -13 -16 31 -6 387 20 683 12 127 21 249 21 271 0 38 -2 42 -31
48 -52 10 -124 7 -141 -6z"/>
<path d="M8994 1921 c-22 -10 -55 -36 -72 -57 -58 -70 -67 -150 -26 -232 62
-125 222 -158 324 -66 57 52 84 113 77 176 -18 150 -169 240 -303 179z"/>
<path d="M11542 1839 c-85 -42 -162 -157 -183 -276 -6 -32 -15 -65 -19 -73 -9
-19 -80 -25 -102 -8 -38 28 -41 145 -9 308 10 46 0 74 -18 55 -5 -6 -32 -86
-61 -180 -102 -336 -152 -439 -200 -410 -15 9 -12 118 5 215 22 122 31 301 16
328 -10 19 -20 22 -69 22 -32 0 -66 -6 -76 -13 -21 -15 -53 -134 -65 -238 -5
-41 -14 -85 -20 -97 -12 -23 -65 -65 -95 -76 -15 -5 -17 -3 -12 16 15 54 18
166 6 221 -15 74 -59 125 -127 150 -94 34 -183 19 -262 -43 -90 -71 -137 -186
-129 -315 8 -119 67 -199 170 -230 62 -18 85 -19 144 -4 51 13 130 78 159 132
12 23 28 37 45 41 15 3 47 20 72 39 l46 35 4 -48 c7 -67 51 -154 92 -179 42
-26 101 -27 143 -2 41 26 105 121 139 207 15 38 29 71 31 73 2 3 15 -6 29 -20
22 -20 36 -24 90 -24 63 0 64 0 64 -26 0 -38 26 -107 56 -146 65 -86 201 -117
319 -72 86 32 171 120 212 220 44 105 47 119 30 119 -8 0 -23 -24 -35 -58 -62
-168 -214 -291 -291 -234 -51 38 -81 173 -67 304 l7 64 73 22 c113 33 157 90
119 154 -38 67 -146 89 -231 47z m192 -45 c24 -9 20 -57 -7 -82 -20 -19 -95
-52 -118 -52 -25 0 15 100 50 127 17 13 50 16 75 7z m-1202 -65 c51 -24 63
-55 62 -169 -1 -71 -6 -117 -17 -142 -15 -35 -18 -37 -42 -28 -47 18 -70 33
-97 64 -70 78 -61 220 16 267 36 22 47 23 78 8z m-172 -179 c0 -76 102 -190
170 -190 28 0 25 -18 -15 -72 -42 -57 -89 -75 -141 -53 -28 11 -36 22 -50 71
-17 60 -15 114 8 213 11 51 28 69 28 31z"/>
</g>
</svg>
